<svg width="643" height="495" viewBox="0 0 643 495" fill="none" xmlns="http://www.w3.org/2000/svg">
<path fill-rule="evenodd" clip-rule="evenodd" d="M351.797 465.954C220.801 453.421 112.375 363.113 64.8662 248C17.3572 132.887 196.229 34.8284 325.063 29.2104C453.897 23.5924 553.35 131.297 553.35 253.974C553.35 376.651 482.794 478.487 351.797 465.954Z" fill="#FFE5D2"/>
<path fill-rule="evenodd" clip-rule="evenodd" d="M512.966 343.694C513.073 343.635 513.741 344.465 514.729 346.099C515.721 347.727 516.955 350.2 518.101 353.392C520.452 359.752 521.927 369.142 521.053 379.382C520.185 389.621 517.67 398.609 515.729 405.007C513.744 411.407 512.283 415.292 512.031 415.227C511.753 415.154 512.739 411.135 514.368 404.672C515.955 398.21 518.22 389.27 519.069 379.241C519.922 369.214 518.708 360.089 516.758 353.78C514.863 347.44 512.654 343.846 512.966 343.694Z" fill="white"/>
<path fill-rule="evenodd" clip-rule="evenodd" d="M519.671 292.45C519.796 292.398 520.604 293.789 521.952 296.355C523.299 298.921 525.191 302.66 527.43 307.326C531.872 316.657 537.85 329.719 542.186 344.884C544.317 352.47 545.77 359.844 546.505 366.617C547.247 373.388 547.322 379.54 546.951 384.674C546.592 389.812 545.903 393.934 545.24 396.736C544.584 399.545 544.064 401.057 543.946 401.033C543.579 400.966 545.202 394.784 545.547 384.613C545.975 374.463 544.559 360.361 540.262 345.366C535.976 330.367 530.243 317.297 526.139 307.85C524.072 303.123 522.401 299.297 521.244 296.652C520.114 293.996 519.545 292.503 519.671 292.45Z" fill="white"/>
<path fill-rule="evenodd" clip-rule="evenodd" d="M271.538 352.595C271.768 352.828 269.512 354.853 266.584 358.612C265.857 359.557 265.067 360.589 264.329 361.769C263.521 362.906 262.818 364.21 262.036 365.556C260.582 368.301 259.202 371.42 258.138 374.815C257.12 378.223 256.526 381.555 256.206 384.607C256.109 386.137 255.967 387.594 256.008 388.959C255.967 390.329 256.051 391.6 256.132 392.764C256.487 397.412 257.255 400.256 256.927 400.339C256.729 400.403 255.466 397.656 254.733 392.899C254.558 391.711 254.39 390.405 254.358 388.992C254.245 387.58 254.326 386.071 254.377 384.481C254.606 381.311 255.168 377.835 256.226 374.298C257.33 370.771 258.817 367.547 260.417 364.748C261.272 363.375 262.055 362.056 262.95 360.918C263.774 359.736 264.656 358.714 265.476 357.796C268.785 354.135 271.407 352.442 271.538 352.595Z" fill="white"/>
<path fill-rule="evenodd" clip-rule="evenodd" d="M276.833 369.001C277 369.252 275.743 370.156 274.101 371.887C273.269 372.741 272.393 373.849 271.532 375.133C270.706 376.438 269.915 377.936 269.294 379.587C268.7 381.247 268.343 382.885 268.139 384.393C267.975 385.903 267.939 387.282 268.034 388.439C268.194 390.753 268.592 392.196 268.295 392.297C268.082 392.381 267.187 391.061 266.64 388.615C266.354 387.395 266.237 385.902 266.311 384.248C266.427 382.599 266.763 380.79 267.413 378.977C268.089 377.171 269.01 375.554 269.999 374.187C271.023 372.841 272.095 371.734 273.117 370.94C275.15 369.329 276.72 368.809 276.833 369.001Z" fill="white"/>
<path fill-rule="evenodd" clip-rule="evenodd" d="M203.32 216.107C203.422 216.023 204.313 216.847 205.841 218.42C206.617 219.198 207.534 220.178 208.504 221.386C209.484 222.584 210.663 223.914 211.77 225.512C212.34 226.301 212.94 227.127 213.562 227.988C214.179 228.855 214.738 229.803 215.361 230.761C216.635 232.664 217.778 234.811 219.021 237.051C221.367 241.596 223.61 246.753 225.397 252.344C227.126 257.951 228.224 263.429 228.88 268.442C229.13 270.959 229.411 273.346 229.44 275.593C229.47 276.716 229.549 277.798 229.531 278.842C229.507 279.883 229.481 280.882 229.457 281.836C229.452 283.746 229.23 285.463 229.1 286.971C228.982 288.481 228.78 289.772 228.577 290.821C228.203 292.923 227.932 294.071 227.796 294.053C227.446 294.009 228.106 289.351 228.051 281.822C228.032 280.88 228.015 279.897 227.996 278.869C227.973 277.843 227.857 276.778 227.792 275.675C227.694 273.466 227.355 271.124 227.061 268.656C226.315 263.741 225.185 258.379 223.488 252.876C221.733 247.388 219.585 242.308 217.371 237.801C216.194 235.58 215.124 233.44 213.932 231.535C213.348 230.576 212.83 229.623 212.258 228.75C211.68 227.879 211.127 227.043 210.598 226.244C206.296 219.896 203.049 216.324 203.32 216.107Z" fill="white"/>
<path fill-rule="evenodd" clip-rule="evenodd" d="M225.85 224.879C226.02 224.737 228.305 226.748 231.211 230.625C232.674 232.554 234.215 234.987 235.715 237.791C237.172 240.614 238.562 243.821 239.671 247.295C240.747 250.78 241.431 254.184 241.839 257.299C242.198 260.42 242.31 263.249 242.195 265.617C241.994 270.357 241.237 273.214 241.014 273.181C240.694 273.145 240.95 270.252 240.788 265.616C240.723 263.3 240.469 260.548 240.022 257.523C239.525 254.504 238.807 251.212 237.764 247.827C236.685 244.452 235.386 241.32 234.06 238.532C232.688 235.762 231.313 233.324 230.03 231.344C227.488 227.371 225.604 225.074 225.85 224.879Z" fill="white"/>
<path fill-rule="evenodd" clip-rule="evenodd" d="M146.956 378.076L145.224 374.749L97.0066 409.414L118.042 441.48L166.04 403.401L146.956 378.076Z" fill="#FF7B5B"/>
<path fill-rule="evenodd" clip-rule="evenodd" d="M99.0272 410.155L117.507 440.226L118.689 439.73L102.232 411.613L99.0272 410.155Z" fill="#D7D4D4"/>
<path fill-rule="evenodd" clip-rule="evenodd" d="M146.004 377.418L99.0272 410.155C99.0272 410.155 99.2241 410.858 100.39 411.291C101.557 411.725 102.232 411.614 102.232 411.614L151.62 379.809C151.62 379.809 148.773 379.186 147.74 378.461C146.706 377.734 146.004 377.418 146.004 377.418Z" fill="#F5F3F3"/>
<path fill-rule="evenodd" clip-rule="evenodd" d="M152.827 378.526L101.35 410.879L118.069 440.694L120.762 444.822L172.241 408.973C172.241 408.973 166.819 401.358 163.564 396.761C160.308 392.163 153.918 381.321 153.57 380.626C153.221 379.931 152.827 378.526 152.827 378.526Z" fill="#FF7B5B"/>
<path fill-rule="evenodd" clip-rule="evenodd" d="M577.348 155.166L578.801 152.371L619.292 181.481L601.627 208.408L561.322 176.431L577.348 155.166Z" fill="#775298"/>
<path fill-rule="evenodd" clip-rule="evenodd" d="M617.595 182.103L602.078 207.354L601.085 206.939L614.905 183.328L617.595 182.103Z" fill="#D7D4D4"/>
<path fill-rule="evenodd" clip-rule="evenodd" d="M578.148 154.612L617.596 182.103C617.596 182.103 617.429 182.693 616.452 183.057C615.471 183.421 614.904 183.328 614.904 183.328L573.431 156.62C573.431 156.62 575.822 156.098 576.69 155.488C577.557 154.877 578.148 154.612 578.148 154.612Z" fill="#F5F3F3"/>
<path fill-rule="evenodd" clip-rule="evenodd" d="M572.418 155.544L615.645 182.711L601.607 207.748L599.345 211.214L556.114 181.11C556.114 181.11 560.669 174.715 563.401 170.855C566.137 166.994 571.502 157.889 571.793 157.306C572.086 156.724 572.418 155.544 572.418 155.544Z" fill="#775298"/>
<path fill-rule="evenodd" clip-rule="evenodd" d="M89.3901 102.772C89.3901 102.772 86.3331 104.763 87.8609 108.082C89.3901 111.402 96.0922 121.248 105.146 120.916C105.517 120.904 93.7404 102.772 93.7404 102.772H89.3901Z" fill="#FF7B5B"/>
<path fill-rule="evenodd" clip-rule="evenodd" d="M75.54 284.294C75.54 284.294 64.2183 274.777 60.5936 276.482C56.1652 278.565 30.8182 301.933 31.8087 312.942C32.2156 317.451 37.7939 313.588 47.734 303.886C57.677 294.185 70.1963 298.343 70.1963 298.343L75.54 284.294Z" fill="#775298"/>
<path fill-rule="evenodd" clip-rule="evenodd" d="M103.047 300.343L89.3794 292.628C89.3794 292.628 53.9518 323.88 59.4867 328.047C63.6848 331.207 66.1525 328.373 76.0941 318.671C86.0342 308.972 98.6288 314.549 98.6288 314.549L103.047 300.343Z" fill="#775298"/>
<path fill-rule="evenodd" clip-rule="evenodd" d="M186.537 197.526L189.1 231.771L132.205 217.825L186.537 197.526Z" fill="#F3A683"/>
<path fill-rule="evenodd" clip-rule="evenodd" d="M132.205 219.003C132.205 219.003 181.973 221.955 188.599 219.874C188.599 219.874 198.325 309.777 181.02 319.476C163.713 329.178 124.876 314.972 124.876 314.972L135.362 295.571L157.971 294.185V259.54L156.349 259.886L132.205 219.003Z" fill="#112129"/>
<path fill-rule="evenodd" clip-rule="evenodd" d="M69.821 280.327C69.821 280.327 57.3031 285.178 61.3536 296.958C61.3536 296.958 104.084 328.485 124.877 321.209C136.526 317.133 149.039 286.035 157.793 259.466L188.6 219.874C188.6 219.874 174.071 220.558 169.224 220.54C159.96 220.507 132.206 219.003 132.206 219.003C132.206 219.003 117.708 290.375 112.543 292.107C107.377 293.838 69.821 280.327 69.821 280.327Z" fill="#22343D"/>
<path fill-rule="evenodd" clip-rule="evenodd" d="M143.803 129.487C143.803 129.487 173.629 103.155 178.783 96.2248C183.937 89.2958 194.986 66.0833 208.606 56.3827L201.979 43.2169C201.979 43.2169 206.031 41.1388 208.606 46.6807C208.606 46.6807 218.178 28.6666 220.388 29.0114C222.599 29.3575 215.971 42.8707 215.971 42.8707C215.971 42.8707 225.179 30.3972 227.755 30.7446C230.33 31.0907 221.127 44.7662 221.127 44.7662C221.127 44.7662 231.435 33.5162 232.909 34.902C234.382 36.2878 224.808 44.7662 224.808 44.7662C224.808 44.7662 235.117 39.1971 236.222 41.0325C237.327 42.8707 225.913 47.7204 225.913 47.7204C225.913 47.7204 224.808 55.6891 217.813 59.1529C217.813 59.1529 203.962 94.3662 191.442 105.799L151.226 145.127L143.803 129.487Z" fill="#FFC6B2"/>
<path fill-rule="evenodd" clip-rule="evenodd" d="M108.199 143.134C108.199 143.134 79.9383 170.951 72.5267 175.735C65.1136 180.518 40.343 190.698 29.9076 203.425L15.9778 197.066C15.9778 197.066 13.7317 200.856 19.5982 203.332C19.5982 203.332 0.362353 212.172 0.711357 214.255C1.05747 216.337 15.4796 210.227 15.4796 210.227C15.4796 210.227 2.13779 218.774 2.48245 221.201C2.82711 223.627 17.4448 215.095 17.4448 215.095C17.4448 215.095 5.39324 224.689 6.85297 226.087C8.30981 227.486 17.4115 218.56 17.4115 218.56C17.4115 218.56 11.3958 228.207 13.3392 229.263C15.2798 230.319 20.5409 219.625 20.5409 219.625C20.5409 219.625 29.0184 218.663 32.7677 212.112C32.7677 212.112 68.2141 198.841 80.4829 187.169L124.594 157.759L108.199 143.134Z" fill="#FFC6B2"/>
<path fill-rule="evenodd" clip-rule="evenodd" d="M118.794 132.047L104.5 145.213L108.125 160.055C108.125 160.055 122.207 191.865 124.336 199.626C127.645 211.693 122.292 230.093 122.292 230.093C122.292 230.093 146.165 228.227 167.888 227.535C189.608 226.842 196.714 220.257 196.714 220.257C196.714 220.257 177.881 161.236 164.878 144.737C151.874 128.241 147.144 123.077 147.144 123.077L127.998 127.015L118.794 132.047Z" fill="white"/>
<path fill-rule="evenodd" clip-rule="evenodd" d="M160.742 142.792L175.635 133.838C175.635 133.838 177.91 124.245 159.95 112.93L138.889 125.347L160.742 142.792Z" fill="white"/>
<path fill-rule="evenodd" clip-rule="evenodd" d="M107.512 144.172C99.3478 145.25 84.4275 164.72 82.7635 164.684C82.7635 164.684 93.2641 180.808 101.582 181.331C101.582 181.331 138.187 140.123 107.512 144.172Z" fill="white"/>
<path fill-rule="evenodd" clip-rule="evenodd" d="M136.333 131.503C136.333 131.503 124.466 123.159 124.877 119.833C124.981 118.995 126.626 117.635 127.054 116.428C129.355 109.932 118.261 93.195 111.444 89.6671C106.082 86.8928 108.432 86.6475 97.1465 92.9579C85.861 99.2682 92.2908 110.18 97.3304 115.824C102.095 121.159 107.551 123.444 112.461 123.83L119.441 138.418L136.333 131.503Z" fill="#FFC6B2"/>
<path fill-rule="evenodd" clip-rule="evenodd" d="M114.919 143.085C112.675 137.904 116.925 131.378 124.414 128.504C131.905 125.629 139.793 127.499 142.042 132.677C144.285 137.856 136.749 145.642 132.542 147.257C128.335 148.872 117.163 148.263 114.919 143.085Z" fill="#FFC6B2"/>
<path fill-rule="evenodd" clip-rule="evenodd" d="M97.3309 115.824C97.3309 115.824 93.4817 115.624 93.0545 118.037C92.6259 120.452 100.11 120.452 102.89 118.641L97.3309 115.824Z" fill="#FFC6B2"/>
<path fill-rule="evenodd" clip-rule="evenodd" d="M99.2557 118.037C98.5244 113.676 93.5847 110.433 93.8309 106.183C96.1986 106.2 97.7192 103.441 96.6418 101.082C96.2175 100.156 95.4992 99.3625 95.0401 98.4482C94.5825 97.5352 94.4608 96.3388 95.1632 95.8224C95.4963 95.5785 95.9466 95.5362 96.3782 95.4954C99.8885 95.1561 105.903 96.1467 109.134 95.0198C112.209 93.9474 115.505 91.8612 115.185 88.3156C114.906 85.2279 112.008 82.7247 109.346 80.8334C107.822 79.7487 103.464 76.9131 101.82 77.1706C99.3107 77.5631 98.7025 80.7135 98.5215 83.3502C96.7663 81.7777 94.177 82.0298 92.6507 83.3093C91.1243 84.5888 90.4017 86.6219 89.737 88.5841C89.0708 90.5476 88.3656 92.5861 86.8595 93.8902C85.4562 95.1057 83.2362 96.0254 83.5273 98.0926C83.8734 100.556 87.2939 101.432 88.8753 103.534C88.4858 103.018 88.1556 106.308 88.3801 106.865C89.0549 108.545 90.7391 109.657 91.957 110.942C94.5506 113.681 95.8192 116.439 99.2557 118.037Z" fill="#FF7B5B"/>
<path fill-rule="evenodd" clip-rule="evenodd" d="M120.759 108.064L111.989 112.332C111.989 112.332 122.523 119.526 120.759 108.064Z" fill="white"/>
<path fill-rule="evenodd" clip-rule="evenodd" d="M108.693 109.756C109.173 110.612 108.463 111.849 107.109 112.519C105.755 113.19 104.269 113.04 103.79 112.184C103.312 111.328 104.02 110.092 105.374 109.421C106.73 108.75 108.214 108.9 108.693 109.756Z" fill="#FFB2A0"/>
<path fill-rule="evenodd" clip-rule="evenodd" d="M121.499 101.525C121.978 102.38 121.269 103.618 119.915 104.288C118.561 104.959 117.075 104.809 116.596 103.953C116.118 103.097 116.826 101.86 118.18 101.19C119.535 100.519 121.02 100.669 121.499 101.525Z" fill="#FFB2A0"/>
<path fill-rule="evenodd" clip-rule="evenodd" d="M114.637 107.761C114.596 107.713 114.76 107.51 115.139 107.253C115.501 106.99 116.131 106.706 116.599 106.232C117.062 105.773 117.229 104.815 116.519 104.68C115.782 104.445 114.945 105.24 113.985 105.997C113.747 106.182 113.513 106.366 113.28 106.547C113.063 106.735 112.605 107.01 112.13 106.954C111.225 106.817 110.84 106.249 110.492 105.868C109.797 105.029 109.368 104.15 109.131 103.39C108.66 101.853 108.872 100.861 108.985 100.869C109.142 100.862 109.194 101.816 109.793 103.168C110.094 103.839 110.544 104.603 111.2 105.323C111.52 105.689 111.923 106.029 112.21 106.04C112.33 106.046 112.424 106.007 112.65 105.829C112.88 105.648 113.112 105.464 113.346 105.278C113.83 104.911 114.249 104.539 114.802 104.192C115.339 103.852 116.105 103.636 116.792 103.856C117.524 104.037 117.954 104.841 117.827 105.4C117.744 105.969 117.443 106.389 117.101 106.696C116.379 107.264 115.733 107.401 115.326 107.573C114.909 107.722 114.68 107.814 114.637 107.761Z" fill="#FF7B5B"/>
<path fill-rule="evenodd" clip-rule="evenodd" d="M112.461 123.83C112.461 123.83 118.055 123.86 121.09 122.101C121.09 122.101 118.523 125.069 113.385 125.837L112.461 123.83Z" fill="#FFA192"/>
<path fill-rule="evenodd" clip-rule="evenodd" d="M114.887 100.224C114.836 100.484 114.054 100.565 113.227 100.908C112.389 101.227 111.784 101.7 111.55 101.553C111.311 101.434 111.707 100.494 112.839 100.045C113.97 99.5945 114.961 99.9787 114.887 100.224Z" fill="#22343D"/>
<path fill-rule="evenodd" clip-rule="evenodd" d="M103.924 106.991C103.713 106.843 104.044 105.996 104.849 105.147C105.665 104.28 106.706 103.991 106.816 104.234C106.932 104.47 106.297 105.019 105.584 105.781C104.858 106.54 104.153 107.151 103.924 106.991Z" fill="#22343D"/>
<path fill-rule="evenodd" clip-rule="evenodd" d="M99.6742 105.683C99.2209 105.366 98.8676 104.013 100.602 102.19C102.353 100.326 104.31 100.654 104.544 101.172C104.796 101.681 104.145 102.404 102.608 104.043C101.048 105.677 100.165 106.029 99.6742 105.683Z" fill="#FF7B5B"/>
<path fill-rule="evenodd" clip-rule="evenodd" d="M108.884 98.5008C108.633 98.0593 108.91 96.7744 111.166 95.8791C113.454 94.9539 114.979 95.9745 114.957 96.5046C114.953 97.0319 114.091 97.4012 112.081 98.216C110.057 99.0159 109.154 98.9818 108.884 98.5008Z" fill="#FF7B5B"/>
<path fill-rule="evenodd" clip-rule="evenodd" d="M590.122 111.283C590.27 111.42 587.84 113.993 582.797 116.795C577.817 119.593 569.981 122.368 560.968 122.43C551.955 122.493 544.075 119.828 539.052 117.098C533.967 114.368 531.497 111.828 531.641 111.687C531.851 111.438 534.614 113.58 539.706 115.925C544.749 118.28 552.348 120.617 560.952 120.558C569.558 120.497 577.119 118.055 582.125 115.631C587.178 113.215 589.909 111.035 590.122 111.283Z" fill="#775298"/>
<path fill-rule="evenodd" clip-rule="evenodd" d="M535.135 107.397C534.997 107.681 532.306 106.631 527.774 105.68C525.515 105.178 522.773 104.791 519.721 104.434C516.656 104.115 513.269 103.862 509.692 103.622C506.114 103.386 502.689 103.115 499.578 102.753C496.468 102.364 493.673 101.902 491.37 101.316C486.748 100.181 484.129 98.8378 484.221 98.6484C484.341 98.3622 487.094 99.2466 491.671 100.022C493.955 100.432 496.711 100.75 499.78 101.037C502.855 101.301 506.253 101.518 509.835 101.755C513.421 101.995 516.852 102.304 519.96 102.724C523.066 103.183 525.852 103.717 528.131 104.399C532.709 105.714 535.238 107.218 535.135 107.397Z" fill="#775298"/>
<mask id="mask0_0_39" style="mask-type:alpha" maskUnits="userSpaceOnUse" x="462" y="35" width="181" height="84">
<path fill-rule="evenodd" clip-rule="evenodd" d="M462.449 35.206H643V118.441H462.449V35.206Z" fill="white"/>
</mask>
<g mask="url(#mask0_0_39)">
<path fill-rule="evenodd" clip-rule="evenodd" d="M480.61 52.0652C489.203 50.3497 498.106 51.8268 506.771 53.1853C515.436 54.5439 524.432 55.7689 532.904 53.5805C548.199 49.6302 559.811 35.0895 575.672 35.2067C582.203 35.2544 588.36 37.8788 594.723 39.2674C602.624 40.9925 610.855 40.8071 618.859 42.0376C626.865 43.2681 635.133 46.2972 639.658 52.6321C645.024 60.1498 643.553 70.7538 637.921 78.0984C632.289 85.4444 623.27 89.9166 614.03 92.4511C607.584 94.2184 600.717 95.2404 595.138 98.7574C589.496 102.315 585.812 108.041 580.555 112.087C567.364 122.237 546.835 119.328 533.21 109.699C529.786 107.281 526.613 104.474 522.767 102.704C507.123 95.4979 484.623 105.036 471.149 91.9265C457.467 78.6121 459.416 56.2949 480.61 52.0652Z" fill="#775298"/>
</g>
<path fill-rule="evenodd" clip-rule="evenodd" d="M476.316 309.916C476.316 309.916 490.65 338.825 492.327 333.472C494 328.117 493.446 315.261 492.549 313.425C491.646 311.59 485.787 303.481 485.787 303.481L476.316 309.916Z" fill="#FFB2A0"/>
<path fill-rule="evenodd" clip-rule="evenodd" d="M579.962 76.1516C581.289 77.75 580.403 76.0331 581.904 78.3387C588.146 78.1343 592.335 73.1647 592.335 73.1647C592.335 73.1647 602.242 73.4114 602.128 71.7462C602.015 70.0784 592.631 70.7011 592.631 70.7011C592.631 70.7011 602.558 67.7673 602.014 66.3025C601.472 64.839 590.011 69.5074 590.011 69.5074C590.011 69.5074 601.576 62.7528 599.867 61.6695C598.16 60.589 587.032 66.4851 587.032 66.4851C587.032 66.4851 596.703 59.011 595.254 58.0476C593.807 57.0843 580.393 66.8121 580.393 66.8121C580.588 62.0265 576.94 62.1941 576.94 62.1941L577.091 73.8788C577.091 73.8788 579.351 75.4158 579.962 76.1516Z" fill="#FFC6B2"/>
<path fill-rule="evenodd" clip-rule="evenodd" d="M433.115 23.2676C430.995 23.6355 432.638 22.9419 429.887 23.7322C425.367 19.677 425.967 13.3039 425.967 13.3039C425.967 13.3039 418.387 7.30017 419.644 6.12694C420.908 4.95098 427.484 11.2791 427.484 11.2791C427.484 11.2791 422.133 2.8825 423.573 2.1276C425.011 1.37269 430.289 12.0231 430.289 12.0231C430.289 12.0231 426.406 -0.252932 428.447 0.00460659C430.486 0.262145 434.648 11.6211 434.648 11.6211C434.648 11.6211 432.691 -0.00765714 434.45 0.176299C436.212 0.358892 439.382 16.0142 439.382 16.0142C442.612 12.3133 445.22 14.7184 445.22 14.7184L437.034 23.1899C437.034 23.1899 434.089 23.0999 433.115 23.2676Z" fill="#FFC6B2"/>
<path fill-rule="evenodd" clip-rule="evenodd" d="M484.535 72.0757C481.794 71.6519 475.165 75.7971 471.849 82.553C469.993 86.3343 468.715 90.1756 470.846 96.3252C471.849 99.2181 473.949 99.5805 474.418 100.876C475.01 102.517 473.048 107.688 473.048 107.688L480.873 110.662C481.381 107.109 481.957 103.535 485.805 101.992C487.244 101.415 488.785 101.049 490.144 100.316C493.809 98.3392 495.767 94.0142 497.273 90.4727C498.397 87.8278 491.408 73.1358 484.535 72.0757Z" fill="#FFC6B2"/>
<path fill-rule="evenodd" clip-rule="evenodd" d="M475.221 172.479L462.112 167.53C462.112 167.53 423.209 235.412 423.371 254.247C423.532 273.08 476.802 310.788 476.802 310.788L485.787 303.482C485.787 303.482 469.34 276.497 460.548 266.983C451.755 257.467 475.221 172.479 475.221 172.479Z" fill="#FFB2A0"/>
<path fill-rule="evenodd" clip-rule="evenodd" d="M540.307 249.807C540.307 249.807 569.199 236.909 563.394 235.769C557.588 234.636 544.01 236.199 542.141 237.191C540.268 238.184 532.156 244.336 532.156 244.336L540.307 249.807Z" fill="#FFC6B2"/>
<path fill-rule="evenodd" clip-rule="evenodd" d="M488.097 171.89L468.211 178.698C468.211 178.698 448.319 261.023 455.914 273.948C463.505 286.878 484.832 278.322 515.205 262.724L540.646 249.656L532.154 244.338C532.154 244.338 502.55 249.796 494.236 255.239C494.236 255.239 498.575 243.671 504.36 227.343C510.144 211.013 514.134 194.344 488.097 171.89Z" fill="#FFC6B2"/>
<path fill-rule="evenodd" clip-rule="evenodd" d="M463.62 115.805C463.62 110.335 465.491 106.379 471.304 106.379C477.117 106.379 485.153 108.296 485.153 113.767C485.153 119.24 480.572 128.123 474.756 128.123C468.944 128.123 463.62 121.277 463.62 115.805Z" fill="#FFC6B2"/>
<path fill-rule="evenodd" clip-rule="evenodd" d="M468.211 105.595C468.211 105.595 450.135 87.1889 446.519 69.1571C442.901 51.128 436.758 21.8708 436.758 21.8708L429.888 23.7322C429.888 23.7322 426.633 63.7161 429.888 69.8384C433.141 75.9621 449.04 116.729 453.881 127.436L468.211 105.595Z" fill="#FFC6B2"/>
<path fill-rule="evenodd" clip-rule="evenodd" d="M487.631 119.941C487.631 119.941 489.021 114.215 511.879 106.433C534.736 98.6525 577.859 73.4314 577.859 73.4314L582.162 78.063C582.162 78.063 558.731 103.529 545.099 107.996C531.468 112.464 502.515 130.076 499.536 131.485C495.031 133.618 495.086 136.301 487.631 119.941Z" fill="#FFC6B2"/>
<path fill-rule="evenodd" clip-rule="evenodd" d="M468.211 105.595C468.211 105.595 449.845 111.196 449.845 137.491C449.845 137.491 449.857 173.504 454.185 180.055C454.185 180.055 461.222 181.752 469.995 180.055C479.193 178.276 488.097 171.89 488.097 171.89L502.543 131.081L500.816 111.96L481.173 108.392C481.173 108.392 486.808 133.168 466.421 122.517C462.459 120.447 472.25 106.39 472.25 106.39L468.211 105.595Z" fill="#22343D"/>
<path fill-rule="evenodd" clip-rule="evenodd" d="M452.671 126.981L443.622 109.241C443.622 109.241 444.919 98.4787 461.533 94.6224C461.533 94.6224 463.212 100.047 465.054 102.12C466.895 104.191 472.256 106.396 472.256 106.396L452.671 126.981Z" fill="#22343D"/>
<path fill-rule="evenodd" clip-rule="evenodd" d="M486.884 134.112L515.66 128.562C515.66 128.562 520.663 118.808 508.8 107.205C508.8 107.205 486.354 108.481 483.449 108.708C480.589 108.932 482.552 111.004 482.552 111.004L486.884 134.112Z" fill="#22343D"/>
<path fill-rule="evenodd" clip-rule="evenodd" d="M454.139 171.283C454.139 171.283 426.921 218.634 422.425 227.094C422.425 227.094 502.723 261.802 535.32 220.025C535.32 220.025 516.778 183.098 488.113 169.039L475.747 165.555L454.623 171.056" fill="#22343D"/>
<path fill-rule="evenodd" clip-rule="evenodd" d="M496.219 90.0249C496.219 90.0249 499.32 87.1075 501.227 89.1269C503.134 91.1464 494.312 94.0638 494.312 94.0638L496.219 90.0249Z" fill="#FFC6B2"/>
<path fill-rule="evenodd" clip-rule="evenodd" d="M552.931 50.2362C552.962 50.337 551.764 50.8249 549.477 51.3358C547.197 51.8523 543.812 52.321 539.608 52.4014C535.407 52.4805 530.411 52.1289 524.943 51.4312C519.47 50.7485 513.526 49.7456 507.271 49.1038C501.027 48.4757 495.023 48.3612 489.705 49.1692C484.386 49.9637 479.782 51.6029 476.263 53.5174C472.744 55.4469 470.295 57.5876 468.792 59.2078C467.28 60.8293 466.6 61.8649 466.446 61.7777C466.362 61.7369 466.817 60.5704 468.187 58.7527C469.548 56.9404 471.951 54.5489 475.533 52.3864C479.113 50.2376 483.872 48.3912 489.401 47.4673C494.937 46.5298 501.129 46.602 507.482 47.2425C513.841 47.8952 519.793 48.9553 525.202 49.7238C530.609 50.5074 535.497 50.987 539.613 51.0769C547.863 51.2936 552.856 49.916 552.931 50.2362Z" fill="#775298"/>
<path fill-rule="evenodd" clip-rule="evenodd" d="M480.43 88.3688C480.422 88.4833 479.538 88.5636 478.19 88.1426C477.857 88.0322 477.463 87.8878 477.097 87.5716C476.916 87.4136 476.748 87.2037 476.645 86.9516C476.497 86.5987 476.509 86.1981 476.655 85.8929C476.698 85.8316 476.695 85.6858 476.781 85.683L477.043 85.6749C477.211 85.6531 477.409 85.7048 477.603 85.7389C477.96 85.8029 478.074 85.7934 478.328 85.8098C478.772 85.8193 479.233 85.7757 479.693 85.6803C481.576 85.3069 482.836 84.0179 483.4 82.9578C483.993 81.8908 484.045 81.0882 484.203 81.0978C484.314 81.0841 484.534 81.9371 484.045 83.2248C483.796 83.8557 483.363 84.5793 482.663 85.2143C481.968 85.8479 481.005 86.3684 479.912 86.5933C479.366 86.7077 478.817 86.7513 478.288 86.7254C478.058 86.7145 477.696 86.6709 477.59 86.6491C477.493 86.6342 477.505 86.6137 477.486 86.6246C477.475 86.6355 477.469 86.6532 477.47 86.6791C477.509 86.8018 477.58 86.9189 477.68 87.0239C477.881 87.2378 478.174 87.3972 478.459 87.5308C479.625 88.069 480.452 88.2284 480.43 88.3688Z" fill="#FF7B5B"/>
<path fill-rule="evenodd" clip-rule="evenodd" d="M473.975 88.6842L484.576 92.6141C484.576 92.6141 475.26 98.6587 473.975 88.6842Z" fill="white"/>
<path fill-rule="evenodd" clip-rule="evenodd" d="M489.102 90.5752C488.726 91.2483 487.558 91.3655 486.494 90.8382C485.43 90.3122 484.872 89.3393 485.247 88.6675C485.624 87.9943 486.792 87.8758 487.857 88.4031C488.921 88.9305 489.479 89.902 489.102 90.5752Z" fill="#FFB2A0"/>
<path fill-rule="evenodd" clip-rule="evenodd" d="M477.271 84.6728C476.95 85.3704 475.796 85.5721 474.692 85.1224C473.589 84.6728 472.953 83.7434 473.275 83.0458C473.595 82.3481 474.75 82.1464 475.854 82.5961C476.957 83.0458 477.593 83.9751 477.271 84.6728Z" fill="#FFB2A0"/>
<path fill-rule="evenodd" clip-rule="evenodd" d="M473.345 99.6232C473.345 99.6232 477.061 102.552 480.938 101.609C480.938 101.609 479.601 103.494 474.456 102.802C474.456 102.802 474.883 100.724 473.345 99.6232Z" fill="#FFA192"/>
<path fill-rule="evenodd" clip-rule="evenodd" d="M488.085 84.3108C488.085 84.7469 487.709 85.1012 487.245 85.1012C486.782 85.1012 486.405 84.7469 486.405 84.3108C486.405 83.8748 486.782 83.5205 487.245 83.5205C487.709 83.5205 488.085 83.8748 488.085 84.3108Z" fill="#22343D"/>
<path fill-rule="evenodd" clip-rule="evenodd" d="M481.212 81.9814C481.212 82.4175 480.836 82.7718 480.372 82.7718C479.909 82.7718 479.534 82.4175 479.534 81.9814C479.534 81.5454 479.909 81.1911 480.372 81.1911C480.836 81.1911 481.212 81.5454 481.212 81.9814Z" fill="#22343D"/>
<path fill-rule="evenodd" clip-rule="evenodd" d="M490.784 82.2057C490.524 82.3092 490.023 81.7383 489.265 81.2764C488.522 80.794 487.769 80.5773 487.77 80.313C487.745 80.0595 488.797 79.8538 489.818 80.4983C490.84 81.1387 491.043 82.1294 490.784 82.2057Z" fill="#775298"/>
<path fill-rule="evenodd" clip-rule="evenodd" d="M478.671 78.3712C478.654 78.1246 479.556 77.8139 480.764 77.8439C481.993 77.8684 482.901 78.4298 482.775 78.6642C482.659 78.9013 481.803 78.7991 480.724 78.78C479.64 78.75 478.688 78.6397 478.671 78.3712Z" fill="#775298"/>
<path fill-rule="evenodd" clip-rule="evenodd" d="M482.456 321.663C482.456 321.663 486.866 336.39 491.419 335.184C495.972 333.98 492.548 313.426 492.548 313.426L488.005 306.67C488.005 306.67 492.273 341.075 482.456 321.663Z" fill="#22343D"/>
<path fill-rule="evenodd" clip-rule="evenodd" d="M538.06 240.015C538.06 240.015 541.266 236.723 545.153 236.175C549.041 235.626 562.936 234.071 564.977 235.808C567.019 237.546 553.715 243.371 553.715 243.371C553.715 243.371 558.35 240.591 556.425 239.558C553.024 237.728 538.06 240.015 538.06 240.015Z" fill="#22343D"/>
<path fill-rule="evenodd" clip-rule="evenodd" d="M532.547 243.958L536.897 252.268L539.271 251.028L533.469 242.842L532.547 243.958Z" fill="#22343D"/>
<path fill-rule="evenodd" clip-rule="evenodd" d="M483.901 300.149L473.223 309.205L476.387 311.687L485.351 302.507L483.901 300.149Z" fill="#22343D"/>
<path fill-rule="evenodd" clip-rule="evenodd" d="M260.648 209.994C257.611 202.902 256.444 195.007 251.912 188.661C245.391 179.53 232.866 175 227.575 165.189C225.327 161.022 224.622 156.255 224.599 151.583C224.555 142.339 227.496 132.511 235.085 126.637C243.804 119.886 256.887 119.98 267.099 124.515C277.309 129.05 285.11 137.282 291.742 145.88C298.376 154.477 304.183 163.703 311.908 171.451C317.635 177.196 324.429 182.151 328.743 188.9C340.57 207.403 328.401 230.815 307.521 237.493C289.175 243.359 266.995 224.819 260.648 209.994Z" fill="#22343D"/>
<path fill-rule="evenodd" clip-rule="evenodd" d="M234.511 340.493C236.327 341.898 234.346 340.925 236.987 342.544C236.398 348.754 230.294 352.666 230.294 352.666C230.294 352.666 230.036 362.552 228.075 362.349C226.11 362.148 227.369 352.829 227.369 352.829C227.369 352.829 223.35 362.567 221.65 361.947C219.951 361.329 226.103 350.156 226.103 350.156C226.103 350.156 217.481 361.323 216.296 359.562C215.113 357.803 222.7 347.027 222.7 347.027C222.7 347.027 213.332 356.269 212.273 354.772C211.216 353.28 223.453 340.428 223.453 340.428C217.789 340.369 218.19 336.742 218.19 336.742L231.985 337.512C231.985 337.512 233.675 339.845 234.511 340.493Z" fill="#FFC6B2"/>
<path fill-rule="evenodd" clip-rule="evenodd" d="M366.299 154.046C368.66 154.435 366.828 153.699 369.891 154.538C374.921 150.237 374.254 143.48 374.254 143.48C374.254 143.48 382.691 137.113 381.292 135.869C379.884 134.623 372.565 141.331 372.565 141.331C372.565 141.331 378.52 132.429 376.918 131.627C375.32 130.828 369.445 142.121 369.445 142.121C369.445 142.121 373.767 129.104 371.494 129.376C369.226 129.65 364.593 141.695 364.593 141.695C364.593 141.695 366.771 129.364 364.812 129.559C362.851 129.753 359.68 145.907 359.68 145.907C355.06 142.369 351.826 144.634 351.826 144.634L361.937 153.962C361.937 153.962 365.214 153.868 366.299 154.046Z" fill="#FFC6B2"/>
<path fill-rule="evenodd" clip-rule="evenodd" d="M308.547 208.036C312.815 207.409 325.829 215.345 322.517 231.461C322.241 232.814 320.362 235.793 319.895 237.025C319.304 238.585 323.907 244.296 323.907 244.296L312.022 247.869C311.516 244.491 312.369 239.554 308.528 238.086C307.092 237.537 305.554 237.19 304.198 236.493C300.539 234.613 298.585 230.499 297.082 227.132C295.96 224.615 295.105 221.909 295.137 219.178C295.215 212.302 301.687 209.044 308.547 208.036Z" fill="#FFC6B2"/>
<path fill-rule="evenodd" clip-rule="evenodd" d="M332.347 252.173C332.347 246.373 330.392 244.158 323.921 244.158C317.451 244.158 308.91 246.373 308.91 252.173C308.91 257.976 313.479 265.236 319.952 265.236C326.421 265.236 332.347 257.976 332.347 252.173Z" fill="#FFC6B2"/>
<path fill-rule="evenodd" clip-rule="evenodd" d="M327.237 241.347C327.237 241.347 347.356 221.828 351.381 202.708C355.407 183.589 362.245 152.564 362.245 152.564L369.891 154.537C369.891 154.537 373.514 196.937 369.891 203.43C366.271 209.924 345.746 255.018 346.148 266.561L327.237 241.347Z" fill="#FFC6B2"/>
<path fill-rule="evenodd" clip-rule="evenodd" d="M291.373 250.797C291.373 250.797 284.532 251.879 274.069 274.247C263.607 296.613 231.414 338.253 231.414 338.253L236.646 342.786C236.646 342.786 268.034 320.783 274.069 307.436C280.104 294.088 287.75 277.494 291.373 278.214C294.994 278.937 310.286 259.093 291.373 250.797Z" fill="#FFC6B2"/>
<path fill-rule="evenodd" clip-rule="evenodd" d="M345.237 269.543L354.605 245.213C354.605 245.213 353.16 233.802 334.67 229.712L324.195 243.912L345.237 269.543Z" fill="#FF7B5B"/>
<path fill-rule="evenodd" clip-rule="evenodd" d="M294.497 248.931C294.497 248.931 283.444 249.807 274.486 268.321C274.486 268.321 284.338 281.119 291.545 281.551C291.545 281.551 318.314 260.021 294.497 248.931Z" fill="#FF7B5B"/>
<path fill-rule="evenodd" clip-rule="evenodd" d="M324.864 468.488C324.864 468.488 308.91 499.143 307.045 493.468C305.182 487.79 305.798 474.155 306.797 472.209C307.801 470.262 314.323 461.664 314.323 461.664L324.864 468.488Z" fill="#FFC6B2"/>
<path fill-rule="evenodd" clip-rule="evenodd" d="M326.083 322.747L340.673 317.498C340.673 317.498 383.973 389.484 383.794 409.456C383.614 429.425 324.324 469.413 324.324 469.413L314.323 461.664C314.323 461.664 342.426 422.785 352.211 412.696C357.104 407.65 322.073 382.924 316.767 359.132C311.461 335.341 326.083 322.747 326.083 322.747Z" fill="#654287"/>
<path fill-rule="evenodd" clip-rule="evenodd" d="M238.36 452.429C238.36 452.429 208.516 473.128 209.757 467.319C211.003 461.504 218.516 449.639 220.4 448.318C222.287 447 232.476 442.035 232.476 442.035L238.36 452.429Z" fill="#FFC6B2"/>
<path fill-rule="evenodd" clip-rule="evenodd" d="M286.388 348.238L329.554 324.698C329.554 324.698 331.267 406.468 320.904 424.148C310.543 441.828 237.407 453.029 237.407 453.029L232.476 442.035C232.476 442.035 277.597 416.739 291.45 411.789C305.305 406.836 286.388 348.238 286.388 348.238Z" fill="#775298"/>
<path fill-rule="evenodd" clip-rule="evenodd" d="M312.096 308.596C312.096 308.596 280.312 319.185 286.388 348.238C292.463 377.29 302.59 382.736 302.59 382.736L320.818 354.594L339.118 317.738L320.818 315.554L312.096 308.596Z" fill="#775298"/>
<path fill-rule="evenodd" clip-rule="evenodd" d="M327.237 241.347C327.237 241.347 350.638 253.687 350.638 281.57C350.638 281.57 347.665 313.359 342.847 320.305C342.847 320.305 335.015 322.105 325.25 320.305C315.012 318.419 305.103 311.648 305.103 311.648L297.107 272.728L290.886 250.004L294.258 248.957L311.858 247.138C311.858 247.138 309.329 271.875 328.981 259.591C333.119 257.003 323.828 244.105 323.828 244.105L327.237 241.347Z" fill="#FF7B5B"/>
<path fill-rule="evenodd" clip-rule="evenodd" d="M341.56 135.979L390.624 162.91L418.223 113.858L372.225 89.8125L341.56 135.979Z" fill="white"/>
<path fill-rule="evenodd" clip-rule="evenodd" d="M409.816 370.787L444.906 350.347L415.915 302.732L383.839 322.304L409.816 370.787Z" fill="white"/>
<path fill-rule="evenodd" clip-rule="evenodd" d="M237.042 167.891C237.135 167.813 238.218 168.738 239.931 170.626C241.637 172.516 243.964 175.389 246.3 179.267C248.645 183.129 250.965 188.029 252.621 193.717C254.336 199.362 255.486 205.708 258.122 211.821C259.49 214.84 261.148 217.652 263.122 220.137C265.113 222.606 267.322 224.773 269.595 226.663C274.241 230.342 279.108 232.872 283.445 234.334C287.778 235.817 291.49 236.482 294.07 236.72C296.648 236.989 298.105 237.028 298.106 237.188C298.114 237.287 296.661 237.496 294.014 237.448C291.368 237.429 287.518 236.953 282.982 235.585C278.443 234.236 273.316 231.74 268.412 227.98C266.007 226.048 263.669 223.811 261.564 221.239C259.476 218.653 257.712 215.696 256.279 212.531C253.534 206.141 252.449 199.74 250.852 194.169C249.327 188.58 247.207 183.77 245.064 179.9C242.933 176.019 240.819 173.077 239.32 171.071C237.813 169.069 236.929 167.985 237.042 167.891Z" fill="#22343D"/>
<path fill-rule="evenodd" clip-rule="evenodd" d="M297.322 136.383C297.682 136.331 298.033 140.876 300.735 147.598C302.085 150.946 304.092 154.798 306.975 158.659C308.416 160.593 310.074 162.498 311.951 164.396C313.815 166.302 315.845 168.239 317.764 170.411C321.611 174.794 324.259 179.532 326.751 183.714C329.226 187.937 331.197 191.954 332.199 195.547C333.244 199.13 333.305 202.213 332.974 204.259C332.628 206.314 332.084 207.355 331.995 207.326C331.822 207.284 332.103 206.184 332.202 204.193C332.287 202.205 332.018 199.308 330.849 195.922C329.72 192.522 327.688 188.691 325.152 184.558C322.577 180.426 319.907 175.784 316.232 171.606C314.387 169.516 312.385 167.586 310.51 165.632C308.624 163.688 306.91 161.663 305.463 159.636C302.561 155.58 300.623 151.537 299.41 148.042C298.169 144.548 297.64 141.599 297.39 139.568C297.142 137.532 297.209 136.393 297.322 136.383Z" fill="#22343D"/>
<path fill-rule="evenodd" clip-rule="evenodd" d="M312.363 225.553C312.344 225.423 313.144 225.303 313.898 224.469C314.072 224.277 314.247 223.996 314.244 223.832C314.24 223.657 314.11 223.351 313.885 223.176C313.652 222.979 313.393 222.884 313.051 222.917C312.698 222.941 312.268 223.106 311.706 223.185C310.475 223.339 309.515 222.685 308.883 222.155C308.234 221.598 307.739 221.032 307.37 220.525C306.634 219.505 306.405 218.767 306.518 218.713C306.649 218.648 307.092 219.258 307.922 220.114C308.336 220.539 308.859 221.027 309.475 221.497C310.084 221.953 310.828 222.369 311.571 222.259C311.965 222.211 312.424 222.038 312.983 222.002C313.552 221.949 314.185 222.196 314.532 222.564C314.902 222.94 315.109 223.383 315.065 223.907C314.955 224.444 314.653 224.695 314.402 224.929C313.32 225.82 312.328 225.675 312.363 225.553Z" fill="#FF7B5B"/>
<path fill-rule="evenodd" clip-rule="evenodd" d="M318.161 226.321L308.738 229.545C308.738 229.545 316.734 236.127 318.161 226.321Z" fill="white"/>
<path fill-rule="evenodd" clip-rule="evenodd" d="M307.798 225.772C308.175 226.446 307.617 227.418 306.553 227.944C305.488 228.472 304.321 228.355 303.945 227.681C303.568 227.01 304.126 226.037 305.19 225.509C306.254 224.982 307.422 225.099 307.798 225.772Z" fill="#FFB2A0"/>
<path fill-rule="evenodd" clip-rule="evenodd" d="M318.969 220.382C319.277 221.085 318.626 222.004 317.515 222.436C316.403 222.869 315.252 222.65 314.943 221.947C314.635 221.244 315.286 220.325 316.398 219.893C317.509 219.461 318.66 219.679 318.969 220.382Z" fill="#FFB2A0"/>
<path fill-rule="evenodd" clip-rule="evenodd" d="M309.017 238.322C309.017 238.322 312.17 238.926 316.188 237.981C316.188 237.981 314.207 239.792 310.971 240.213C310.971 240.213 310.245 238.952 309.017 238.322Z" fill="#FFA192"/>
<path fill-rule="evenodd" clip-rule="evenodd" d="M312.238 218.392C312.591 218.674 312.635 219.172 312.335 219.505C312.035 219.837 311.507 219.878 311.152 219.596C310.799 219.315 310.755 218.817 311.055 218.483C311.355 218.15 311.885 218.11 312.238 218.392Z" fill="#22343D"/>
<path fill-rule="evenodd" clip-rule="evenodd" d="M305.906 221.819C306.259 222.102 306.303 222.6 306.003 222.933C305.705 223.265 305.175 223.306 304.82 223.024C304.466 222.742 304.423 222.245 304.723 221.911C305.023 221.578 305.553 221.537 305.906 221.819Z" fill="#22343D"/>
<path fill-rule="evenodd" clip-rule="evenodd" d="M312.275 215.093C312.191 215.347 311.405 215.337 310.541 215.584C309.669 215.805 309.007 216.205 308.793 216.032C308.571 215.888 309.084 214.999 310.267 214.683C311.447 214.363 312.381 214.859 312.275 215.093Z" fill="#22343D"/>
<path fill-rule="evenodd" clip-rule="evenodd" d="M301.337 221.31C301.125 221.163 301.457 220.315 302.262 219.468C303.076 218.601 304.118 218.312 304.227 218.553C304.344 218.789 303.709 219.338 302.995 220.1C302.271 220.859 301.565 221.472 301.337 221.31Z" fill="#22343D"/>
<path fill-rule="evenodd" clip-rule="evenodd" d="M297.783 227.893C297.783 227.893 294.76 225.505 293.309 227.666C291.86 229.827 299.838 230.965 299.838 230.965L297.783 227.893Z" fill="#FFC6B2"/>
<path fill-rule="evenodd" clip-rule="evenodd" d="M225.112 445.703C225.112 445.703 220.779 447.475 219.649 448.54C218.518 449.602 208.157 466.442 209.476 468.569C210.795 470.696 221.186 463.475 221.186 463.475C221.186 463.475 212.491 465.025 225.112 445.703Z" fill="#775298"/>
<path fill-rule="evenodd" clip-rule="evenodd" d="M309.662 467.97C309.662 467.97 306.585 471.1 306.11 472.538C305.635 473.973 304.785 493.415 307.005 494.72C309.223 496.027 315.288 485.299 315.288 485.299C315.288 485.299 308.037 490.643 309.662 468.015" fill="#775298"/>
</svg>
