<svg width="25" height="25" viewBox="0 0 25 25" fill="none" xmlns="http://www.w3.org/2000/svg">
<circle cx="12.5" cy="12.5" r="12.5" fill="white"/>
<path fill-rule="evenodd" clip-rule="evenodd" d="M17.0738 9H7.92609C7.60004 9 7.34129 9.24307 7.29228 9.55605L12.5 12.9871L17.7076 9.55605C17.6586 9.24307 17.3999 9 17.0738 9ZM7.27271 14.8753V10.325L10.7972 12.6472L7.27271 14.8753ZM17.7273 14.8753L14.2028 12.6472L17.7273 10.325V14.8753ZM12.6797 13.6509L13.6043 13.0419L17.7064 15.6359C17.656 15.9463 17.3986 16.1874 17.0739 16.1874H7.92613C7.60138 16.1874 7.34394 15.9463 7.29362 15.6359L11.3957 13.0413L12.3203 13.6509C12.3752 13.6868 12.4373 13.7045 12.5 13.7045C12.5627 13.7045 12.6248 13.6868 12.6797 13.6509Z" fill="#FF7B5B"/>
</svg>
