<svg width="25" height="25" viewBox="0 0 25 25" fill="none" xmlns="http://www.w3.org/2000/svg">
<circle cx="12.5" cy="12.5" r="12.5" fill="white"/>
<path d="M15.3491 14.6663C14.8597 14.5641 14.4097 14.3742 14.0129 14.1031C13.8205 13.967 13.5461 13.9836 13.3433 14.1279L12.1812 14.7394C11.3596 13.8752 10.9521 12.9601 10.8022 11.6405L11.802 10.745C12.0326 10.5839 12.186 10.3098 12.2024 10.0264C12.2269 9.45734 12.3344 8.87732 12.5221 8.30304C12.6548 7.89711 12.4818 7.5081 12.1364 7.43598L10.6748 7.13079C10.3295 7.05868 9.94048 7.33033 9.80779 7.73626C8.25965 12.4724 10.2785 17.0105 14.3078 17.8519C14.6532 17.924 15.0422 17.6523 15.1749 17.2464L15.7348 15.5334C15.8675 15.1275 15.6945 14.7384 15.3491 14.6663Z" fill="#FF7B5B"/>
</svg>
